<svg width="235" height="36" viewBox="0 0 235 36" fill="none" xmlns="http://www.w3.org/2000/svg">
<path d="M23.76 0.279999V5.6H15.4V28H9.16V5.6H0.8V0.279999H23.76ZM37.2769 12.24C36.7435 12.1067 36.1169 11.9733 35.3969 11.84C34.6769 11.68 33.9035 11.6 33.0769 11.6C32.7035 11.6 32.2502 11.64 31.7169 11.72C31.2102 11.7733 30.8235 11.84 30.5569 11.92V28H24.5969V8.08C25.6635 7.70667 26.9169 7.36 28.3569 7.04C29.8235 6.69333 31.4502 6.52 33.2369 6.52C33.5569 6.52 33.9435 6.54667 34.3969 6.6C34.8502 6.62667 35.3035 6.68 35.7569 6.76C36.2102 6.81333 36.6635 6.89333 37.1169 7C37.5702 7.08 37.9569 7.18667 38.2769 7.32L37.2769 12.24ZM40.0813 17.64C40.0813 15.7733 40.3613 14.1467 40.9212 12.76C41.5079 11.3467 42.2679 10.1733 43.2013 9.24C44.1346 8.30667 45.2013 7.6 46.4013 7.12C47.6279 6.64 48.8813 6.4 50.1613 6.4C53.1479 6.4 55.5079 7.32 57.2413 9.16C58.9746 10.9733 59.8413 13.6533 59.8413 17.2C59.8413 17.5467 59.8279 17.9333 59.8013 18.36C59.7746 18.76 59.7479 19.12 59.7213 19.44H46.2013C46.3346 20.6667 46.9079 21.64 47.9213 22.36C48.9346 23.08 50.2946 23.44 52.0013 23.44C53.0946 23.44 54.1613 23.3467 55.2013 23.16C56.2679 22.9467 57.1346 22.6933 57.8013 22.4L58.6013 27.24C58.2813 27.4 57.8546 27.56 57.3213 27.72C56.7879 27.88 56.1879 28.0133 55.5213 28.12C54.8813 28.2533 54.1879 28.36 53.4413 28.44C52.6946 28.52 51.9479 28.56 51.2013 28.56C49.3079 28.56 47.6546 28.28 46.2413 27.72C44.8546 27.16 43.6946 26.4 42.7613 25.44C41.8546 24.4533 41.1746 23.2933 40.7213 21.96C40.2946 20.6267 40.0813 19.1867 40.0813 17.64ZM54.0813 15.36C54.0546 14.8533 53.9613 14.36 53.8013 13.88C53.6679 13.4 53.4413 12.9733 53.1213 12.6C52.8279 12.2267 52.4413 11.92 51.9613 11.68C51.5079 11.44 50.9346 11.32 50.2413 11.32C49.5746 11.32 49.0013 11.44 48.5213 11.68C48.0413 11.8933 47.6413 12.1867 47.3213 12.56C47.0013 12.9333 46.7479 13.3733 46.5613 13.88C46.4013 14.36 46.2813 14.8533 46.2013 15.36H54.0813ZM70.1606 28C68.8006 25.3333 67.414 22.2133 66.0006 18.64C64.614 15.0667 63.294 11.1733 62.0406 6.96H68.3606C68.6273 8 68.934 9.13333 69.2806 10.36C69.654 11.56 70.0273 12.7867 70.4006 14.04C70.8006 15.2667 71.1873 16.4667 71.5606 17.64C71.9606 18.8133 72.3473 19.88 72.7206 20.84C73.0673 19.88 73.4406 18.8133 73.8406 17.64C74.2406 16.4667 74.6273 15.2667 75.0006 14.04C75.4006 12.7867 75.774 11.56 76.1206 10.36C76.494 9.13333 76.814 8 77.0806 6.96H83.2406C81.9873 11.1733 80.654 15.0667 79.2406 18.64C77.854 22.2133 76.4806 25.3333 75.1206 28H70.1606ZM105.566 17.44C105.566 19.0933 105.326 20.6133 104.846 22C104.366 23.36 103.673 24.5333 102.766 25.52C101.859 26.48 100.766 27.2267 99.4859 27.76C98.2326 28.2933 96.8193 28.56 95.2459 28.56C93.6993 28.56 92.2859 28.2933 91.0059 27.76C89.7526 27.2267 88.6726 26.48 87.7659 25.52C86.8593 24.5333 86.1526 23.36 85.6459 22C85.1393 20.6133 84.8859 19.0933 84.8859 17.44C84.8859 15.7867 85.1393 14.28 85.6459 12.92C86.1793 11.56 86.8993 10.4 87.8059 9.44C88.7393 8.48 89.8326 7.73333 91.0859 7.2C92.3659 6.66667 93.7526 6.4 95.2459 6.4C96.7659 6.4 98.1526 6.66667 99.4059 7.2C100.686 7.73333 101.779 8.48 102.686 9.44C103.593 10.4 104.299 11.56 104.806 12.92C105.313 14.28 105.566 15.7867 105.566 17.44ZM99.4859 17.44C99.4859 15.6 99.1126 14.16 98.3659 13.12C97.6459 12.0533 96.6059 11.52 95.2459 11.52C93.8859 11.52 92.8326 12.0533 92.0859 13.12C91.3393 14.16 90.9659 15.6 90.9659 17.44C90.9659 19.28 91.3393 20.7467 92.0859 21.84C92.8326 22.9067 93.8859 23.44 95.2459 23.44C96.6059 23.44 97.6459 22.9067 98.3659 21.84C99.1126 20.7467 99.4859 19.28 99.4859 17.44ZM122.863 12.24C122.329 12.1067 121.703 11.9733 120.983 11.84C120.263 11.68 119.489 11.6 118.663 11.6C118.289 11.6 117.836 11.64 117.303 11.72C116.796 11.7733 116.409 11.84 116.143 11.92V28H110.183V8.08C111.249 7.70667 112.503 7.36 113.943 7.04C115.409 6.69333 117.036 6.52 118.823 6.52C119.143 6.52 119.529 6.54667 119.983 6.6C120.436 6.62667 120.889 6.68 121.343 6.76C121.796 6.81333 122.249 6.89333 122.703 7C123.156 7.08 123.543 7.18667 123.863 7.32L122.863 12.24Z" fill="#004743"/>
<path d="M155.627 28C155.334 27.04 155.001 26.0533 154.627 25.04C154.281 24.0267 153.934 23.0133 153.587 22H142.787C142.441 23.0133 142.081 24.0267 141.707 25.04C141.361 26.0533 141.041 27.04 140.747 28H134.267C135.307 25.0133 136.294 22.2533 137.227 19.72C138.161 17.1867 139.067 14.8 139.947 12.56C140.854 10.32 141.734 8.2 142.587 6.2C143.467 4.17333 144.374 2.2 145.307 0.279999H151.267C152.174 2.2 153.067 4.17333 153.947 6.2C154.827 8.2 155.707 10.32 156.587 12.56C157.494 14.8 158.414 17.1867 159.347 19.72C160.281 22.2533 161.267 25.0133 162.307 28H155.627ZM148.147 6.56C148.014 6.96 147.814 7.50667 147.547 8.2C147.281 8.89333 146.974 9.69333 146.627 10.6C146.281 11.5067 145.894 12.5067 145.467 13.6C145.067 14.6933 144.654 15.84 144.227 17.04H152.107C151.681 15.84 151.267 14.6933 150.867 13.6C150.467 12.5067 150.081 11.5067 149.707 10.6C149.361 9.69333 149.054 8.89333 148.787 8.2C148.521 7.50667 148.307 6.96 148.147 6.56ZM178.175 12.24C177.642 12.1067 177.015 11.9733 176.295 11.84C175.575 11.68 174.802 11.6 173.975 11.6C173.602 11.6 173.149 11.64 172.615 11.72C172.109 11.7733 171.722 11.84 171.455 11.92V28H165.495V8.08C166.562 7.70667 167.815 7.36 169.255 7.04C170.722 6.69333 172.349 6.52 174.135 6.52C174.455 6.52 174.842 6.54667 175.295 6.6C175.749 6.62667 176.202 6.68 176.655 6.76C177.109 6.81333 177.562 6.89333 178.015 7C178.469 7.08 178.855 7.18667 179.175 7.32L178.175 12.24ZM193.93 16.84C193.93 14.92 193.677 13.56 193.17 12.76C192.69 11.96 191.85 11.56 190.65 11.56C190.277 11.56 189.89 11.5867 189.49 11.64C189.09 11.6667 188.704 11.7067 188.33 11.76V28H182.37V7.68C182.877 7.54667 183.464 7.41333 184.13 7.28C184.824 7.12 185.544 6.98667 186.29 6.88C187.064 6.74667 187.85 6.65333 188.65 6.6C189.45 6.52 190.237 6.48 191.01 6.48C192.53 6.48 193.757 6.68 194.69 7.08C195.65 7.45333 196.437 7.90667 197.05 8.44C197.904 7.82667 198.877 7.34667 199.97 7C201.09 6.65333 202.117 6.48 203.05 6.48C204.73 6.48 206.104 6.72 207.17 7.2C208.264 7.65333 209.13 8.30667 209.77 9.16C210.41 10.0133 210.85 11.0267 211.09 12.2C211.33 13.3733 211.45 14.68 211.45 16.12V28H205.49V16.84C205.49 14.92 205.237 13.56 204.73 12.76C204.25 11.96 203.41 11.56 202.21 11.56C201.89 11.56 201.437 11.64 200.85 11.8C200.29 11.96 199.824 12.16 199.45 12.4C199.637 13.0133 199.757 13.6667 199.81 14.36C199.864 15.0267 199.89 15.7467 199.89 16.52V28H193.93V16.84ZM234.918 6.96C233.718 11.0133 232.464 14.8133 231.158 18.36C229.851 21.9067 228.424 25.3467 226.878 28.68C226.318 29.88 225.758 30.8933 225.197 31.72C224.638 32.5733 224.024 33.2667 223.358 33.8C222.691 34.36 221.931 34.76 221.078 35C220.251 35.2667 219.278 35.4 218.158 35.4C217.224 35.4 216.358 35.3067 215.558 35.12C214.784 34.96 214.144 34.7733 213.638 34.56L214.678 29.8C215.291 30.0133 215.838 30.16 216.318 30.24C216.798 30.32 217.304 30.36 217.838 30.36C218.904 30.36 219.718 30.0667 220.278 29.48C220.864 28.92 221.358 28.1333 221.758 27.12C220.398 24.4533 219.038 21.4667 217.678 18.16C216.318 14.8267 215.038 11.0933 213.838 6.96H220.158C220.424 8 220.731 9.13333 221.078 10.36C221.451 11.56 221.838 12.7867 222.238 14.04C222.638 15.2667 223.038 16.4667 223.438 17.64C223.864 18.8133 224.264 19.88 224.638 20.84C224.984 19.88 225.344 18.8133 225.718 17.64C226.091 16.4667 226.451 15.2667 226.798 14.04C227.171 12.7867 227.518 11.56 227.838 10.36C228.184 9.13333 228.491 8 228.758 6.96H234.918Z" fill="#FBD103"/>
</svg>
